{
  "accessors": [
    {
      "bufferView": 1,
      "componentType": 5126,
      "count": 8224,
      "max": [
        4.795380115509033,
        28.200000762939453,
        4.795380115509033
      ],
      "min": [
        -4.795380115509033,
        -1.0,
        -4.795380115509033
      ],
      "type": "VEC3"
    },
    {
      "bufferView": 1,
      "byteOffset": 98688,
      "componentType": 5126,
      "count": 8224,
      "max": [
        1.0,
        0.9900559186935425,
        1.0
      ],
      "min": [
        -1.0,
        -0.9900559186935425,
        -1.0
      ],
      "type": "VEC3"
    },
    {
      "bufferView": 0,
      "componentType": 5125,
      "count": 49152,
      "type": "SCALAR"
    }
  ],
  "asset": {
    "extras": {
      "author": "shahrukh7587 (https://sketchfab.com/shahrukh7587)",
      "license": "CC-BY-4.0 (http://creativecommons.org/licenses/by/4.0/)",
      "source": "https://sketchfab.com/3d-models/spring-using-blender-ffc2cc4575464dd5a9d8b813bd227023",
      "title": "Spring using blender"
    },
    "generator": "Sketchfab-12.68.0",
    "version": "2.0"
  },
  "bufferViews": [
    {
      "buffer": 0,
      "byteLength": 196608,
      "name": "floatBufferViews",
      "target": 34963
    },
    {
      "buffer": 0,
      "byteLength": 197376,
      "byteOffset": 196608,
      "byteStride": 12,
      "name": "floatBufferViews",
      "target": 34962
    }
  ],
  "buffers": [
    {
      "byteLength": 393984,
      "uri": "scene.bin"
    }
  ],
  "materials": [
    {
      "doubleSided": true,
      "name": "Material.002",
      "pbrMetallicRoughness": {
        "metallicFactor": 0.0,
        "roughnessFactor": 0.6
      }
    }
  ],
  "meshes": [
    {
      "name": "Circle_0",
      "primitives": [
        {
          "attributes": {
            "NORMAL": 1,
            "POSITION": 0
          },
          "indices": 2,
          "material": 0,
          "mode": 4
        }
      ]
    }
  ],
  "nodes": [
    {
      "children": [
        1
      ],
      "matrix": [
        1.0,
        0.0,
        0.0,
        0.0,
        0.0,
        -0.00520090479403712,
        -0.999986469745636,
        0.0,
        0.0,
        0.999986469745636,
        -0.00520090479403712,
        0.0,
        0.0,
        0.00015454420645254275,
        0.05944211781024933,
        1.0
      ],
      "name": "Sketchfab_model"
    },
    {
      "children": [
        2,
        4
      ],
      "name": "Root"
    },
    {
      "children": [
        3
      ],
      "matrix": [
        -0.29086000000000006,
        0.9551700000000001,
        -0.05519000000000001,
        0.0,
        -0.7711,
        -0.19988000000000003,
        0.6045200000000001,
        0.0,
        0.5663900000000001,
        0.21839000000000003,
        0.7946700000000001,
        0.0,
        4.076250000000001,
        1.00545,
        5.903860000000001,
        1.0
      ],
      "name": "Lamp"
    },
    {
      "name": "Lamp"
    },
    {
      "children": [
        5
      ],
      "matrix": [
        1.31016,
        0.0,
        0.0,
        0.0,
        0.0,
        -0.0,
        0.84038,
        0.0,
        0.0,
        -1.5771,
        -0.0,
        0.0,
        0.17296000000000003,
        0.0,
        0.0,
        1.0
      ],
      "name": "Circle"
    },
    {
      "mesh": 0,
      "name": "Circle_0"
    }
  ],
  "scene": 0,
  "scenes": [
    {
      "name": "Sketchfab_Scene",
      "nodes": [
        0
      ]
    }
  ]
}
